<svg width="24" height="24" viewBox="0 0 24 24" fill="none" xmlns="http://www.w3.org/2000/svg">
<path fill-rule="evenodd" clip-rule="evenodd" d="M14.5277 12C14.5277 12.6704 14.2614 13.3134 13.7874 13.7874C13.3133 14.2615 12.6704 14.5278 11.9999 14.5278C11.3295 14.5278 10.6866 14.2615 10.2125 13.7874C9.73849 13.3134 9.47217 12.6704 9.47217 12C9.47217 11.3296 9.73849 10.6866 10.2125 10.2126C10.6866 9.73853 11.3295 9.47221 11.9999 9.47221C12.6704 9.47221 13.3133 9.73853 13.7874 10.2126C14.2614 10.6866 14.5277 11.3296 14.5277 12ZM12.8425 12C12.8425 12.2235 12.7538 12.4378 12.5957 12.5958C12.4377 12.7538 12.2234 12.8426 11.9999 12.8426C11.7765 12.8426 11.5622 12.7538 11.4041 12.5958C11.2461 12.4378 11.1574 12.2235 11.1574 12C11.1574 11.7765 11.2461 11.5622 11.4041 11.4042C11.5622 11.2462 11.7765 11.1574 11.9999 11.1574C12.2234 11.1574 12.4377 11.2462 12.5957 11.4042C12.7538 11.5622 12.8425 11.7765 12.8425 12Z" fill="#FF00FF"/>
<path fill-rule="evenodd" clip-rule="evenodd" d="M12 18.1389C12.8061 18.1389 13.6044 17.9801 14.3492 17.6716C15.094 17.3631 15.7708 16.9109 16.3408 16.3409C16.9109 15.7708 17.3631 15.0941 17.6716 14.3493C17.9801 13.6045 18.1389 12.8062 18.1389 12C18.1389 11.1938 17.9801 10.3956 17.6716 9.65075C17.3631 8.90595 16.9109 8.2292 16.3408 7.65915C15.7708 7.0891 15.094 6.63692 14.3492 6.32841C13.6044 6.0199 12.8061 5.86111 12 5.86111C10.3718 5.86111 8.81039 6.50789 7.65912 7.65915C6.50786 8.81042 5.86108 10.3719 5.86108 12C5.86108 13.6281 6.50786 15.1896 7.65912 16.3409C8.81039 17.4921 10.3718 18.1389 12 18.1389ZM12 16.3849C13.1629 16.3849 14.2782 15.9229 15.1006 15.1006C15.9229 14.2783 16.3849 13.163 16.3849 12C16.3849 10.8371 15.9229 9.72173 15.1006 8.8994C14.2782 8.07706 13.1629 7.61508 12 7.61508C10.837 7.61508 9.7217 8.07706 8.89937 8.8994C8.07703 9.72173 7.61505 10.8371 7.61505 12C7.61505 13.163 8.07703 14.2783 8.89937 15.1006C9.7217 15.9229 10.837 16.3849 12 16.3849Z" fill="#FF00FF"/>
<path fill-rule="evenodd" clip-rule="evenodd" d="M12 21.75C17.3847 21.75 21.75 17.3847 21.75 12C21.75 6.61534 17.3847 2.25 12 2.25C6.61534 2.25 2.25 6.61534 2.25 12C2.25 17.3847 6.61534 21.75 12 21.75ZM12 19.9773C13.0476 19.9773 14.0849 19.7709 15.0528 19.37C16.0206 18.9691 16.9 18.3815 17.6408 17.6408C18.3815 16.9 18.9691 16.0206 19.37 15.0528C19.7709 14.0849 19.9773 13.0476 19.9773 12C19.9773 10.9524 19.7709 9.91508 19.37 8.94723C18.9691 7.97938 18.3815 7.09997 17.6408 6.35922C16.9 5.61846 16.0206 5.03086 15.0528 4.62996C14.0849 4.22907 13.0476 4.02273 12 4.02273C9.8843 4.02273 7.85525 4.86319 6.35922 6.35922C4.86319 7.85525 4.02273 9.8843 4.02273 12C4.02273 14.1157 4.86319 16.1448 6.35922 17.6408C7.85525 19.1368 9.8843 19.9773 12 19.9773Z" fill="#FF00FF"/>
</svg>
