<svg id="Capa_1" data-name="Capa 1" xmlns="http://www.w3.org/2000/svg" xmlns:xlink="http://www.w3.org/1999/xlink" viewBox="0 0 762 310"><defs><style>.cls-1{fill:none;}.cls-2{clip-path:url(#clip-path);}.cls-3{fill:#fff;}</style><clipPath id="clip-path"><rect class="cls-1" x="-580" y="-384" width="1920" height="1080"/></clipPath></defs><title>logo centrado</title><g class="cls-2"><path class="cls-3" d="M287.5,27.7a46.76,46.76,0,0,1,17.4,2.5,49.07,49.07,0,0,1,20.2,12.5,49.56,49.56,0,0,1,14.7,35.7,51.9,51.9,0,0,1-2.9,17,47,47,0,0,1-8.5,15.1l17.4,41.3H324.5l-11.9-28.4a65.15,65.15,0,0,1-7.8,3.3v25.1H285.2V28Zm17.4,53.1v24.5a23.74,23.74,0,0,0,6.4-4.8A31.27,31.27,0,0,0,318,90.4a30.39,30.39,0,0,0,2.3-11.9A32.3,32.3,0,0,0,318,66.6a31.27,31.27,0,0,0-6.7-10.1,23.74,23.74,0,0,0-6.4-4.8V80.8Z"/></g><g class="cls-2"><path class="cls-3" d="M488.3,121.3c6.2,7,12.9,10.6,20,10.6,5,0,8.7-1.7,11.3-5.1a15.82,15.82,0,0,0,3.3-7.3,19.17,19.17,0,0,0,.3-3.9,14.41,14.41,0,0,0-.6-4.5,16.21,16.21,0,0,0-4.8-6.7,43.8,43.8,0,0,0-9.3-6.5L502,94.2c-4.3-2.4-7.9-4.4-10.6-6.2a39.92,39.92,0,0,1-7.4-6.2A30,30,0,0,1,475.8,65a31.39,31.39,0,0,1-.5-5.1,28.89,28.89,0,0,1,3.3-13.7,31.74,31.74,0,0,1,12.7-13.7,41.9,41.9,0,0,1,8.7-3.6,45.71,45.71,0,0,1,9-1.1,33.44,33.44,0,0,1,17.5,5,39.59,39.59,0,0,1,7.1,5.3,32.11,32.11,0,0,1,5.7,6.8L522.9,55.5a19.37,19.37,0,0,0-6.2-5.9,15.88,15.88,0,0,0-7.8-2.2,15.6,15.6,0,0,0-7.8,2,13.1,13.1,0,0,0-5.1,5.4,13.48,13.48,0,0,0-1.2,5.3l.2,1.7a14.75,14.75,0,0,0,3.4,6.7,11.41,11.41,0,0,0,2.3,2c.9.6,2.1,1.3,3.4,2l2.6,1.7c2,1.2,4.2,2.5,6.7,3.9,2.3,1.2,4,2.2,5.1,2.9a73,73,0,0,1,12.3,8.8,47.3,47.3,0,0,1,5.9,6.4,37.23,37.23,0,0,1,4.3,8.4,34.14,34.14,0,0,1,1.7,10.9,53.29,53.29,0,0,1-.6,7,31.34,31.34,0,0,1-7.4,16.8,34.8,34.8,0,0,1-15.4,10.2,37.63,37.63,0,0,1-11.5,2,53.38,53.38,0,0,1-6.4-.6,43.2,43.2,0,0,1-15.8-6.2,56.51,56.51,0,0,1-12.1-10.6Z"/></g><g class="cls-2"><path class="cls-3" d="M417.5,121.3c6.2,7,12.9,10.6,20,10.6,5,0,8.7-1.7,11.3-5.1a15.82,15.82,0,0,0,3.3-7.3,19.17,19.17,0,0,0,.3-3.9,14.41,14.41,0,0,0-.6-4.5,16.21,16.21,0,0,0-4.8-6.7,43.8,43.8,0,0,0-9.3-6.5l-6.5-3.7c-4.3-2.4-7.9-4.4-10.6-6.2a39.92,39.92,0,0,1-7.4-6.2A30,30,0,0,1,405,65a31.39,31.39,0,0,1-.5-5.1,28.89,28.89,0,0,1,3.3-13.7,31.74,31.74,0,0,1,12.7-13.7,41.9,41.9,0,0,1,8.7-3.6,45.71,45.71,0,0,1,9-1.1,33.44,33.44,0,0,1,17.5,5,39.59,39.59,0,0,1,7.1,5.3,32.11,32.11,0,0,1,5.7,6.8L452.1,55.5a19.37,19.37,0,0,0-6.2-5.9,15.88,15.88,0,0,0-7.8-2.2,15.6,15.6,0,0,0-7.8,2,13.1,13.1,0,0,0-5.1,5.4,13.48,13.48,0,0,0-1.2,5.3l.2,1.7a14.75,14.75,0,0,0,3.4,6.7,11.41,11.41,0,0,0,2.3,2c.9.6,2.1,1.3,3.4,2l2.6,1.7c2,1.2,4.2,2.5,6.7,3.9,2.3,1.2,4,2.2,5.1,2.9A73,73,0,0,1,460,89.8a47.3,47.3,0,0,1,5.9,6.4,37.23,37.23,0,0,1,4.3,8.4,34.14,34.14,0,0,1,1.7,10.9,53.29,53.29,0,0,1-.6,7,31.34,31.34,0,0,1-7.4,16.8,34.8,34.8,0,0,1-15.4,10.2,37.63,37.63,0,0,1-11.5,2,53.38,53.38,0,0,1-6.4-.6,43.2,43.2,0,0,1-15.8-6.2,56.51,56.51,0,0,1-12.1-10.6Z"/></g><g class="cls-2"><polygon class="cls-3" points="596.9 46.9 582.7 46.9 582.7 131.8 596.9 131.8 596.9 151.3 550.1 151.3 550.1 131.8 564.3 131.8 564.3 46.9 550.1 46.9 550.1 27.4 596.9 27.4 596.9 46.9"/></g><g class="cls-2"><polygon class="cls-3" points="673.6 27.4 648.6 151.3 626.3 151.3 601.4 27.4 620.7 27.4 637.3 110.8 653.7 27.4 673.6 27.4"/></g><g class="cls-2"><polygon class="cls-3" points="729.8 46.6 700.5 46.6 700.5 80.1 729.8 80.1 729.8 99.2 700.5 99.2 700.5 132.1 729.8 132.1 729.8 151.3 681.2 151.3 681.2 27.4 729.8 27.4 729.8 46.6"/></g><g class="cls-2"><path class="cls-3" d="M267.75,277.3V162.1h5.3v124h-6.5l-6.7-13-5.3-10.2-8.7-17.2-8.4,16.3-5.3,10.4-7.1,13.8H219v-124h5.3V276.6l7.9-15.5,13.7-26.5Zm-21.9-59.8L232.15,244V162.1h5.3v60.4l8.4-20.8,8.7,21.7V162.1h5.3V244Z"/></g><g class="cls-2"><polygon class="cls-3" points="399.2 47 369.9 47 369.9 80.5 399.2 80.5 399.2 99.6 369.9 99.6 369.9 132.5 399.2 132.5 399.2 151.7 350.7 151.7 350.7 27.7 399.2 27.7 399.2 47"/></g><g class="cls-2"><path class="cls-3" d="M26.4,151.4V27.4a90.06,90.06,0,0,1,12.4.8,50.38,50.38,0,0,1,10.9,2.9,56.9,56.9,0,0,1,16.4,11A48.55,48.55,0,0,1,77,58.5a49.08,49.08,0,0,1,3.9,19.4A47.69,47.69,0,0,1,77,97.3a47.59,47.59,0,0,1-10.9,16.4,49.33,49.33,0,0,1-16.4,11L46,126.1v25.1H26.4ZM52.1,100a26.57,26.57,0,0,0,6.8-10,31.23,31.23,0,0,0,2.3-12,33.22,33.22,0,0,0-2.3-12,27.78,27.78,0,0,0-6.8-10,24.77,24.77,0,0,0-6.2-4.8V105a30.93,30.93,0,0,0,6.2-5"/></g><g class="cls-2"><path class="cls-3" d="M87.9,27.4a46.76,46.76,0,0,1,17.4,2.5,49.07,49.07,0,0,1,20.2,12.5,49.56,49.56,0,0,1,14.7,35.7,51.9,51.9,0,0,1-2.9,17,47,47,0,0,1-8.5,15.1l17.4,41.3H125L113,123a65.15,65.15,0,0,1-7.8,3.3v25.1H85.7V27.7Zm17.4,53V105a23.74,23.74,0,0,0,6.4-4.8,31.27,31.27,0,0,0,6.7-10.1,30.39,30.39,0,0,0,2.3-11.9,32.3,32.3,0,0,0-2.3-11.9,31.27,31.27,0,0,0-6.7-10.1,23.74,23.74,0,0,0-6.4-4.8v29Z"/></g><g class="cls-2"><path class="cls-3" d="M202.5,44.5a28.45,28.45,0,0,1,2.4,11.4v68a28.45,28.45,0,0,1-2.4,11.4,26.74,26.74,0,0,1-6.8,9.4,25.07,25.07,0,0,1-8.7,5,30.33,30.33,0,0,1-10.4,1.8,27.53,27.53,0,0,1-18.6-6.8,28,28,0,0,1-6.8-9.4,28.45,28.45,0,0,1-2.4-11.4v-68a28.45,28.45,0,0,1,2.4-11.4,26.74,26.74,0,0,1,6.8-9.4c4.8-5,11-7.4,18.6-7.4a31.32,31.32,0,0,1,10.5,1.8,21,21,0,0,1,8.6,5.7,24.41,24.41,0,0,1,6.8,9.3m-19.3,4.6a8.93,8.93,0,0,0-6.5-2.3,9.72,9.72,0,0,0-6.7,2.3,8.44,8.44,0,0,0-3.1,6.8v68a8.31,8.31,0,0,0,3.1,6.8,10.62,10.62,0,0,0,13.2,0,8.44,8.44,0,0,0,3.1-6.8v-68a8.44,8.44,0,0,0-3.1-6.8"/></g><g class="cls-2"><path class="cls-3" d="M274.6,99.1v52.3H264.4a38.26,38.26,0,0,1-9.3-1.1,48.69,48.69,0,0,1-24-13.5,60.27,60.27,0,0,1-14.6-23.7A69.61,69.61,0,0,1,212.6,90a69.41,69.41,0,0,1,6.7-30.7,56.16,56.16,0,0,1,17.7-22,45.19,45.19,0,0,1,13-7,43.17,43.17,0,0,1,14.9-2.5V47.4A27.25,27.25,0,0,0,248.6,53,42.13,42.13,0,0,0,237,67.7a48.92,48.92,0,0,0-4.8,21.9,51.28,51.28,0,0,0,2.8,17.2c2.6,6.8,5.9,12.3,9.9,16.3a29,29,0,0,0,10.2,6.8V99.1Z"/></g><g class="cls-2"><polygon class="cls-3" points="234.35 167.7 221.35 167.7 219.05 162.1 237.45 162.1 234.35 167.7"/></g><g class="cls-2"><polygon class="cls-3" points="269.95 167.7 256.95 167.7 254.65 162.1 273.05 162.1 269.95 167.7"/></g><g class="cls-2"><path class="cls-3" d="M428.55,267V228.7h34.9v5.4h-29.3V267h29.3v5.6h-34.9Zm-8.3-46.6v60.4h43.1v5.4h-48.6v-124h48.6v5.4h-43.1v52.8Zm43.2,0h-34.9V175.9h34.9v5.6h-29.3V215h29.3v5.4"/></g><g class="cls-2"><polygon class="cls-3" points="457.85 178.1 457.85 165.1 463.45 162.8 463.45 181.2 457.85 178.1"/></g><g class="cls-2"><polygon class="cls-3" points="457.85 283.1 457.85 270.2 463.45 267.8 463.45 286.2 457.85 283.1"/></g><g class="cls-2"><polygon class="cls-3" points="457.85 230.3 457.85 217.4 463.45 215 463.45 233.4 457.85 230.3"/></g><g class="cls-2"><path class="cls-3" d="M301.75,280.6h27.3v5.6h-46.8v-5.6h19.5Zm7.8-104.4h19.6v5.6h-14.3v84.9h14.3v5.6h-19.6V176.2Zm0-8.4h-27.3v-5.6h46.9v5.6h-19.6Zm-7.8,8.4v96.1h-19.5v-5.6h14.3V181.8h-14.3v-5.6h19.5Z"/></g><g class="cls-2"><polygon class="cls-3" points="287.85 165.9 287.85 178.8 282.25 181.2 282.25 162.8 287.85 165.9"/></g><g class="cls-2"><polygon class="cls-3" points="323.55 178.1 323.55 165.1 329.05 162.8 329.05 181.2 323.55 178.1"/></g><g class="cls-2"><polygon class="cls-3" points="287.85 270.9 287.85 283.9 282.25 286.2 282.25 267.8 287.85 270.9"/></g><g class="cls-2"><polygon class="cls-3" points="323.55 283.1 323.55 270.2 329.05 267.8 329.05 286.2 323.55 283.1"/></g><g class="cls-2"><path class="cls-3" d="M515.05,184.1a15.88,15.88,0,0,0-7.8-2.2,15.6,15.6,0,0,0-7.8,2,12.53,12.53,0,0,0-5.1,5.4,13.48,13.48,0,0,0-1.2,5.3l.2,1.7a14.75,14.75,0,0,0,3.4,6.7,11.41,11.41,0,0,0,2.3,2c.9.6,2.1,1.3,3.4,2l2.6,1.7c2,1.2,4.2,2.5,6.7,3.9,2.3,1.2,4,2.2,5.1,2.9a73,73,0,0,1,12.3,8.8,47.3,47.3,0,0,1,5.9,6.4,37.23,37.23,0,0,1,4.3,8.4,34.14,34.14,0,0,1,1.7,10.9,53.29,53.29,0,0,1-.6,7,31.34,31.34,0,0,1-7.4,16.8,34.8,34.8,0,0,1-15.4,10.2,37.63,37.63,0,0,1-11.5,2,53.38,53.38,0,0,1-6.4-.6,43.2,43.2,0,0,1-15.8-6.2,56.51,56.51,0,0,1-12.1-10.6l4.2-3.6a46.68,46.68,0,0,0,10.9,9.3,37.33,37.33,0,0,0,13.8,5.4,35.32,35.32,0,0,0,5.6.5,27.64,27.64,0,0,0,9.6-1.6,27.25,27.25,0,0,0,12.7-8.5,28.59,28.59,0,0,0,6.4-14,38.62,38.62,0,0,0,.5-6.1,27.39,27.39,0,0,0-1.4-9.2q-2.1-6.6-8.7-12.6a85.35,85.35,0,0,0-11.5-8.1c-.5-.3-2.4-1.4-5.7-3.4l-5.9-3.3-2.9-1.7a29,29,0,0,1-6.7-5.1A16.33,16.33,0,0,1,488,197a18.9,18.9,0,0,1-.3-2.9,15.39,15.39,0,0,1,1.9-7.4,16.79,16.79,0,0,1,7.3-7.8,20.76,20.76,0,0,1,10.6-2.8,21.86,21.86,0,0,1,10.9,3,19.92,19.92,0,0,1,7.8,7.7l-4.7,2.9a24.59,24.59,0,0,0-6.4-5.6m16.8-3.3c-.4-.5-.8-.9-1.1-1.3l-2.6-2.8a30.48,30.48,0,0,0-6.1-4.5,27.8,27.8,0,0,0-14.7-4.2,32.25,32.25,0,0,0-7.6.9,31.49,31.49,0,0,0-7.3,2.9,26,26,0,0,0-13.2,22.8,24.63,24.63,0,0,0,7.3,17.8,39,39,0,0,0,5.7,5c2.9,1.9,6.1,3.7,9.6,5.6,1,.6,2.2,1.3,3.5,2s2.7,1.6,4.3,2.5a72,72,0,0,1,10.8,7.8,20.25,20.25,0,0,1,5.8,8.5,22,22,0,0,1,.9,6.4,27.44,27.44,0,0,1-.3,4.7,20.38,20.38,0,0,1-4.5,9.9,20.93,20.93,0,0,1-9,6.1,24.78,24.78,0,0,1-7.3,1.1,25.6,25.6,0,0,1-12.4-3.3,41.17,41.17,0,0,1-11.2-9.1l4.2-3.7c6.2,7,12.9,10.6,20,10.6,5,0,8.7-1.7,11.3-5.1a15.82,15.82,0,0,0,3.3-7.3,19.17,19.17,0,0,0,.3-3.9,14.41,14.41,0,0,0-.6-4.5,16.21,16.21,0,0,0-4.8-6.7,43.8,43.8,0,0,0-9.3-6.5l-6.5-3.7c-4.3-2.4-7.9-4.4-10.6-6.2a39.92,39.92,0,0,1-7.4-6.2,30,30,0,0,1-8.2-16.8,31.39,31.39,0,0,1-.5-5.1,28.89,28.89,0,0,1,3.3-13.7,31.74,31.74,0,0,1,12.7-13.7,37.1,37.1,0,0,1,8.7-3.6,45.71,45.71,0,0,1,9-1.1,33.44,33.44,0,0,1,17.5,5,39.59,39.59,0,0,1,7.1,5.3,32.11,32.11,0,0,1,5.7,6.8l-4.5,2.4c-.4-.8-.9-.7-1.3-1.1"/></g><g class="cls-2"><polygon class="cls-3" points="471.95 268.7 486.65 255.8 489.25 260.3 476.55 271.4 471.95 268.7"/></g><g class="cls-2"><polygon class="cls-3" points="521.25 190 537.75 179.5 533.45 175.8 518.85 185.2 521.25 190"/></g><g class="cls-2"><polygon class="cls-3" points="396.65 167.8 383.65 167.8 381.35 162.2 399.75 162.2 396.65 167.8"/></g><g class="cls-2"><polygon class="cls-3" points="384.85 280.6 397.85 280.6 400.15 286.2 381.75 286.2 384.85 280.6"/></g><g class="cls-2"><polygon class="cls-3" points="347.15 280.6 360.05 280.6 362.45 286.2 344.05 286.2 347.15 280.6"/></g><g class="cls-2"><polygon class="cls-3" points="364.55 167.8 347.45 167.8 345.15 162.2 363.55 162.2 364.55 167.8"/></g><g class="cls-2"><path class="cls-3" d="M386.75,231.2l-5.6-10.3-23.7-43.6-.1,11.1v97.9H363V198.8l18.2,33.7v53.8h5.6Zm0-69h-5.6v29.9l-16.3-29.9h-6.2l22.5,41.3,5.6,10.2Zm-37.7,0v124h-5.6v-124h5.6Zm51.7,124h-5.6v-124h5.6Z"/></g></svg>