<svg version="1.1" id="Capa_1" xmlns="http://www.w3.org/2000/svg" xmlns:xlink="http://www.w3.org/1999/xlink" x="0" y="0" viewBox="0 0 762 310" xml:space="preserve"><style>.st0{clip-path:url(#SVGID_2_);fill:#fff}</style><defs><path id="SVGID_1_" d="M-580-384h1920V696H-580z"/></defs><clipPath id="SVGID_2_"><use xlink:href="#SVGID_1_" overflow="visible"/></clipPath><path class="st0" d="M287.5 27.7c6.3-.2 12.1.6 17.4 2.5 7.7 2.5 14.4 6.6 20.2 12.5 5.8 5.8 9.9 12.6 12.4 20.3 1.6 5 2.3 10.1 2.3 15.4 0 5.8-1 11.5-2.9 17s-4.7 10.6-8.5 15.1l17.4 41.3h-21.3l-11.9-28.4c-3.2 1.6-5.8 2.6-7.8 3.3v25.1h-19.6V28l2.3-.3zm17.4 53.1v24.5c2.1-1 4.2-2.6 6.4-4.8 2.9-2.9 5.1-6.3 6.7-10.1 1.6-3.8 2.3-7.8 2.3-11.9 0-4.1-.8-8.1-2.3-11.9-1.6-3.8-3.8-7.2-6.7-10.1-2.2-2.2-4.3-3.8-6.4-4.8v29.1zM488.3 121.3c6.2 7 12.9 10.6 20 10.6 5 0 8.7-1.7 11.3-5.1 1.7-2 2.7-4.4 3.3-7.3.2-.9.3-2.2.3-3.9 0-1.8-.2-3.3-.6-4.5-.7-2.2-2.3-4.4-4.8-6.7-2.6-2.4-5.7-4.6-9.3-6.5l-6.5-3.7c-4.3-2.4-7.9-4.4-10.6-6.2-2.7-1.8-5.2-3.8-7.4-6.2-4.4-4.6-7.2-10.1-8.2-16.8-.3-1.8-.5-3.5-.5-5.1 0-5 1.1-9.5 3.3-13.7 2.9-5.9 7.1-10.4 12.7-13.7 2.7-1.5 5.6-2.7 8.7-3.6 3.4-.7 6.4-1.1 9-1.1 6.2 0 12 1.7 17.5 5 1.8.9 4.1 2.7 7.1 5.3 2.8 2.7 4.7 5 5.7 6.8l-16.4 10.6c-1.7-2.5-3.7-4.4-6.2-5.9-2.5-1.4-5.1-2.2-7.8-2.2-2.9 0-5.5.7-7.8 2-2.4 1.5-4.1 3.3-5.1 5.4-.8 1.9-1.2 3.6-1.2 5.3l.2 1.7c.4 2.3 1.6 4.5 3.4 6.7.6.7 1.4 1.4 2.3 2 .9.6 2.1 1.3 3.4 2l2.6 1.7c2 1.2 4.2 2.5 6.7 3.9 2.3 1.2 4 2.2 5.1 2.9 4.7 2.7 8.7 5.6 12.3 8.8 2.5 2.3 4.4 4.4 5.9 6.4 2 3 3.4 5.8 4.3 8.4 1.1 3.3 1.7 6.9 1.7 10.9 0 1.8-.2 4.1-.6 7-.8 6.4-3.3 12-7.4 16.8-4.2 4.8-9.4 8.2-15.4 10.2-4 1.3-7.9 2-11.5 2-1.3 0-3.5-.2-6.4-.6-5.9-1.1-11.2-3.2-15.8-6.2-4.7-3.1-8.7-6.6-12.1-10.6l14.8-12.8zM417.5 121.3c6.2 7 12.9 10.6 20 10.6 5 0 8.7-1.7 11.3-5.1 1.7-2 2.7-4.4 3.3-7.3.2-.9.3-2.2.3-3.9 0-1.8-.2-3.3-.6-4.5-.7-2.2-2.3-4.4-4.8-6.7-2.6-2.4-5.7-4.6-9.3-6.5l-6.5-3.7c-4.3-2.4-7.9-4.4-10.6-6.2-2.7-1.8-5.2-3.8-7.4-6.2-4.4-4.6-7.2-10.1-8.2-16.8-.3-1.8-.5-3.5-.5-5.1 0-5 1.1-9.5 3.3-13.7 2.9-5.9 7.1-10.4 12.7-13.7 2.7-1.5 5.6-2.7 8.7-3.6 3.4-.7 6.4-1.1 9-1.1 6.2 0 12 1.7 17.5 5 1.8.9 4.1 2.7 7.1 5.3 2.8 2.7 4.7 5 5.7 6.8l-16.4 10.6c-1.7-2.5-3.7-4.4-6.2-5.9-2.5-1.4-5.1-2.2-7.8-2.2-2.9 0-5.5.7-7.8 2-2.4 1.5-4.1 3.3-5.1 5.4-.8 1.9-1.2 3.6-1.2 5.3l.2 1.7c.4 2.3 1.6 4.5 3.4 6.7.6.7 1.4 1.4 2.3 2 .9.6 2.1 1.3 3.4 2l2.6 1.7c2 1.2 4.2 2.5 6.7 3.9 2.3 1.2 4 2.2 5.1 2.9 4.7 2.7 8.7 5.6 12.3 8.8 2.5 2.3 4.4 4.4 5.9 6.4 2 3 3.4 5.8 4.3 8.4 1.1 3.3 1.7 6.9 1.7 10.9 0 1.8-.2 4.1-.6 7-.8 6.4-3.3 12-7.4 16.8-4.2 4.8-9.4 8.2-15.4 10.2-4 1.3-7.9 2-11.5 2-1.3 0-3.5-.2-6.4-.6-5.9-1.1-11.2-3.2-15.8-6.2-4.7-3.1-8.7-6.6-12.1-10.6l14.8-12.8zM596.9 46.9h-14.2v84.9h14.2v19.5h-46.8v-19.5h14.2V46.9h-14.2V27.4h46.8zM673.6 27.4l-25 123.9h-22.3L601.4 27.4h19.3l16.6 83.4 16.4-83.4zM729.8 46.6h-29.3v33.5h29.3v19.1h-29.3v32.9h29.3v19.2h-48.6V27.4h48.6zM75.1 277.3V162.1h5.3v124h-6.5l-6.7-13-5.3-10.2-8.7-17.2-8.4 16.3-5.3 10.4-7.1 13.8h-6.1v-124h5.3v114.4l7.9-15.5 13.7-26.5 21.9 42.7zm-21.9-59.8L39.5 244v-81.9h5.3v60.4l8.4-20.8 8.7 21.7v-61.3h5.3V244l-14-26.5zM399.2 47h-29.3v33.5h29.3v19.1h-29.3v32.9h29.3v19.2h-48.5v-124h48.5zM26.4 151.4v-124c4.7 0 8.8.3 12.4.8 3.6.5 7.2 1.5 10.9 2.9 6.1 2.7 11.6 6.4 16.4 11 4.8 4.8 8.4 10.2 10.9 16.4 2.6 6.1 3.9 12.6 3.9 19.4 0 7-1.3 13.5-3.9 19.4-2.5 6.2-6.1 11.7-10.9 16.4-4.9 4.9-10.3 8.5-16.4 11l-3.7 1.4v25.1H26.4zM52.1 100c3-2.8 5.3-6.1 6.8-10 1.6-3.9 2.3-7.9 2.3-12s-.8-8.1-2.3-12c-1.6-3.9-3.8-7.2-6.8-10-2.2-2.2-4.2-3.8-6.2-4.8V105c2.1-1.3 4.2-2.9 6.2-5M87.9 27.4c6.3-.2 12.1.6 17.4 2.5 7.7 2.5 14.4 6.6 20.2 12.5 5.8 5.8 9.9 12.6 12.4 20.3 1.6 5 2.3 10.1 2.3 15.4 0 5.8-1 11.5-2.9 17s-4.7 10.6-8.5 15.1l17.4 41.3H125L113 123c-3.2 1.6-5.8 2.6-7.8 3.3v25.1H85.7V27.7l2.2-.3zm17.4 53V105c2.1-1 4.2-2.6 6.4-4.8 2.9-2.9 5.1-6.3 6.7-10.1 1.6-3.8 2.3-7.8 2.3-11.9 0-4.1-.8-8.1-2.3-11.9-1.6-3.8-3.8-7.2-6.7-10.1-2.2-2.2-4.3-3.8-6.4-4.8v29zM202.5 44.5c1.6 3.7 2.4 7.5 2.4 11.4v68c0 3.9-.8 7.7-2.4 11.4-1.6 3.7-3.9 6.8-6.8 9.4-2.5 2.2-5.4 3.9-8.7 5-3.3 1.2-6.8 1.8-10.4 1.8-7.2 0-13.4-2.3-18.6-6.8-2.9-2.6-5.1-5.7-6.8-9.4-1.6-3.7-2.4-7.5-2.4-11.4v-68c0-3.9.8-7.7 2.4-11.4 1.6-3.7 3.9-6.8 6.8-9.4 4.8-5 11-7.4 18.6-7.4 3.6 0 7.1.6 10.5 1.8 3.4 1.2 6.2 3.1 8.6 5.7 3 2.5 5.2 5.6 6.8 9.3m-19.3 4.6c-1.7-1.6-3.8-2.3-6.5-2.3-2.8 0-5 .8-6.7 2.3-2.1 1.8-3.1 4-3.1 6.8v68c0 2.8 1 5.1 3.1 6.8 1.7 1.6 3.9 2.3 6.7 2.3 2.7 0 4.9-.8 6.5-2.3 2.1-1.8 3.1-4 3.1-6.8v-68c0-2.8-1-5-3.1-6.8M274.6 99.1v52.3h-10.2c-3.4 0-6.5-.4-9.3-1.1-4.4-1.1-8.6-2.7-12.4-4.7-4.3-2.5-8.2-5.4-11.6-8.8-6.6-6.6-11.5-14.5-14.6-23.7-2.6-7.4-3.9-15.2-3.9-23.1 0-11.2 2.2-21.4 6.7-30.7 3.9-8.7 9.8-16 17.7-22 3.8-3 8.2-5.3 13-7 4.7-1.7 9.6-2.5 14.9-2.5v19.6c-5.8 0-11.2 1.9-16.3 5.6-4.9 3.9-8.7 8.8-11.6 14.7-3.2 6.5-4.8 13.8-4.8 21.9 0 6.1.9 11.8 2.8 17.2 2.6 6.8 5.9 12.3 9.9 16.3 3.1 3.1 6.5 5.4 10.2 6.8V99.1h19.5z"/><path class="st0" d="M41.7 167.7h-13l-2.3-5.6h18.4zM77.3 167.7h-13l-2.3-5.6h18.4zM235.9 267v-38.3h34.9v5.4h-29.3V267h29.3v5.6h-34.9V267zm-8.3-46.6V280.8h43.1v5.4h-48.6v-124h48.6v5.4h-43.1v52.8zm43.2 0h-34.9v-44.5h34.9v5.6h-29.3V215h29.3v5.4"/><path class="st0" d="M265.2 178.1v-13l5.6-2.3v18.4zM265.2 283.1v-12.9l5.6-2.4v18.4zM265.2 230.3v-12.9l5.6-2.4v18.4zM109.1 280.6h27.3v5.6H89.6v-5.6h19.5zm7.8-104.4h19.6v5.6h-14.3v84.9h14.3v5.6h-19.6v-96.1zm0-8.4H89.6v-5.6h46.9v5.6h-19.6zm-7.8 8.4v96.1H89.6v-5.6h14.3v-84.9H89.6v-5.6h19.5z"/><path class="st0" d="M95.2 165.9v12.9l-5.6 2.4v-18.4zM130.9 178.1v-13l5.5-2.3v18.4zM95.2 270.9v13l-5.6 2.3v-18.4zM130.9 283.1v-12.9l5.5-2.4v18.4zM322.4 184.1c-2.5-1.4-5.1-2.2-7.8-2.2-2.9 0-5.5.7-7.8 2-2.4 1.4-4.1 3.3-5.1 5.4-.8 1.9-1.2 3.6-1.2 5.3l.2 1.7c.4 2.3 1.6 4.5 3.4 6.7.6.7 1.4 1.4 2.3 2 .9.6 2.1 1.3 3.4 2l2.6 1.7c2 1.2 4.2 2.5 6.7 3.9 2.3 1.2 4 2.2 5.1 2.9 4.7 2.7 8.7 5.6 12.3 8.8 2.5 2.3 4.4 4.4 5.9 6.4 2 3 3.4 5.8 4.3 8.4 1.1 3.3 1.7 6.9 1.7 10.9 0 1.8-.2 4.1-.6 7-.8 6.4-3.3 12-7.4 16.8-4.2 4.8-9.4 8.2-15.4 10.2-4 1.3-7.9 2-11.5 2-1.3 0-3.5-.2-6.4-.6-5.9-1.1-11.2-3.2-15.8-6.2-4.7-3.1-8.7-6.6-12.1-10.6l4.2-3.6c3.1 3.6 6.7 6.7 10.9 9.3 4.7 2.9 9.3 4.7 13.8 5.4 1.9.3 3.7.5 5.6.5 3.4 0 6.6-.5 9.6-1.6 5.3-1.8 9.5-4.6 12.7-8.5 3.4-4 5.5-8.7 6.4-14 .3-1.9.5-3.9.5-6.1 0-3.6-.5-6.7-1.4-9.2-1.4-4.4-4.3-8.6-8.7-12.6-2.9-2.5-6.7-5.2-11.5-8.1-.5-.3-2.4-1.4-5.7-3.4l-5.9-3.3-2.9-1.7c-2.4-1.3-4.6-3-6.7-5.1-2.8-2.9-4.4-6.1-4.8-9.6-.2-1.2-.3-2.2-.3-2.9 0-2.5.6-5 1.9-7.4 1.7-3.5 4.1-6.1 7.3-7.8 3.3-1.9 6.8-2.8 10.6-2.8s7.3 1 10.9 3c3.5 2 6.1 4.6 7.8 7.7l-4.7 2.9c-1.8-2.2-3.9-4.1-6.4-5.6m16.8-3.3c-.4-.5-.8-.9-1.1-1.3l-2.6-2.8c-2.2-2-4.2-3.5-6.1-4.5-4.6-2.8-9.5-4.2-14.7-4.2-2.6 0-5.1.3-7.6.9-2.2.5-4.6 1.5-7.3 2.9-4.7 2.7-8.2 6.5-10.6 11.3-1.8 3.7-2.6 7.6-2.6 11.5 0 6.8 2.4 12.8 7.3 17.8 2.1 2.2 4 3.8 5.7 5 2.9 1.9 6.1 3.7 9.6 5.6 1 .6 2.2 1.3 3.5 2 1.3.7 2.7 1.6 4.3 2.5 4.3 2.6 7.9 5.2 10.8 7.8 2.8 2.6 4.8 5.4 5.8 8.5.6 2 .9 4.1.9 6.4 0 2.1-.1 3.6-.3 4.7-.6 3.7-2.1 7-4.5 9.9-2.4 2.8-5.4 4.8-9 6.1-2.3.7-4.7 1.1-7.3 1.1-4.2 0-8.4-1.1-12.4-3.3-4-2.2-7.8-5.2-11.2-9.1l4.2-3.7c6.2 7 12.9 10.6 20 10.6 5 0 8.7-1.7 11.3-5.1 1.7-2 2.7-4.4 3.3-7.3.2-.9.3-2.2.3-3.9 0-1.8-.2-3.3-.6-4.5-.7-2.2-2.3-4.4-4.8-6.7-2.6-2.4-5.7-4.6-9.3-6.5l-6.5-3.7c-4.3-2.4-7.9-4.4-10.6-6.2-2.7-1.8-5.2-3.8-7.4-6.2-4.4-4.6-7.2-10.1-8.2-16.8-.3-1.8-.5-3.5-.5-5.1 0-5 1.1-9.5 3.3-13.7 2.9-5.9 7.1-10.4 12.7-13.7 2.7-1.6 5.6-2.7 8.7-3.6 3.4-.7 6.4-1.1 9-1.1 6.2 0 12 1.7 17.5 5 1.8.9 4.1 2.7 7.1 5.3 2.8 2.7 4.7 5 5.7 6.8l-4.5 2.4c-.4-.8-.9-.7-1.3-1.1"/><path class="st0" d="M279.3 268.7l14.7-12.9 2.6 4.5-12.7 11.1zM328.6 190l16.5-10.5-4.3-3.7-14.6 9.4zM204 167.8h-13l-2.3-5.6h18.4zM192.2 280.6h13l2.3 5.6h-18.4zM154.5 280.6h12.9l2.4 5.6h-18.4zM171.9 167.8h-17.1l-2.3-5.6h18.4z"/><path class="st0" d="M194.1 231.2l-5.6-10.3-23.7-43.6-.1 11.1v97.9h5.6v-87.5l18.2 33.7v53.8h5.6v-55.1zm0-69h-5.6v29.9l-16.3-29.9H166l22.5 41.3 5.6 10.2v-51.5zm-37.7 0v124h-5.6v-124h5.6zm51.7 124h-5.6v-124h5.6v124z"/></svg>