<svg width="24" height="24" viewBox="0 0 24 24" fill="none" xmlns="http://www.w3.org/2000/svg">
<path d="M6.141 3.75L6.02325 4.33575C6.02325 4.33575 5.25 7.866 5.25 9.75C5.25 13.2128 7.887 16.0725 11.25 16.4535V19.5H7.5V21H16.5V19.5H12.75V16.4528C16.113 16.0725 18.75 13.2128 18.75 9.75C18.75 7.863 17.9767 4.33575 17.9767 4.33575L17.859 3.75H6.141ZM7.383 5.25H16.617C16.6875 5.616 16.866 6.53925 17.016 7.5H8.25V9H17.2035C17.226 9.261 17.25 9.54225 17.25 9.75C17.25 12.6593 14.9093 15 12 15C9.09075 15 6.75 12.6593 6.75 9.75C6.75 8.484 7.251 5.9295 7.383 5.25Z" fill="#FF00FF"/>
</svg>
