<?xml version="1.0" standalone="no"?>
<!DOCTYPE svg PUBLIC "-//W3C//DTD SVG 20010904//EN"
 "http://www.w3.org/TR/2001/REC-SVG-20010904/DTD/svg10.dtd">
<svg version="1.0" xmlns="http://www.w3.org/2000/svg"
 width="183.000000pt" height="183.000000pt" viewBox="0 0 183.000000 183.000000"
 preserveAspectRatio="xMidYMid meet">
<metadata>
Created by potrace 1.11, written by Peter Selinger 2001-2013
</metadata>
<g transform="translate(0.000000,183.000000) scale(0.100000,-0.100000)"
fill="#000000" stroke="none">
<path d="M50 918 l0 -914 145 0 145 0 0 186 0 185 58 22 c335 131 531 536 427
888 -49 166 -138 296 -275 399 -119 89 -237 130 -407 141 l-93 7 0 -914z m370
497 c31 -31 71 -81 88 -113 27 -51 33 -71 48 -137 21 -91 -8 -245 -61 -327
-27 -40 -109 -124 -137 -139 -16 -9 -18 -5 -19 33 0 58 -1 721 0 731 2 18 27
3 81 -48z"/>
<path d="M970 914 l0 -915 48 3 c46 3 48 5 72 53 115 231 275 533 281 529 4
-2 44 -77 89 -165 116 -229 201 -392 212 -407 6 -6 30 -12 54 -12 l44 0 0 915
0 915 -135 0 -135 0 -1 -25 c0 -14 -1 -214 -1 -446 -1 -232 -4 -415 -9 -408
-4 8 -30 73 -59 144 -29 72 -55 133 -59 137 -3 4 -30 -55 -60 -130 -30 -75
-57 -140 -60 -144 -3 -4 -6 191 -6 432 l0 440 -137 0 -138 0 0 -916z m195 278
c0 -303 2 -552 5 -552 3 0 20 28 38 63 17 34 60 118 96 186 l64 124 15 -29 c9
-16 41 -76 72 -134 30 -58 68 -129 82 -157 15 -29 30 -53 33 -53 3 0 5 249 5
553 l0 552 58 2 57 1 0 -806 -1 -807 -99 195 c-55 107 -125 246 -157 307 -31
62 -60 113 -64 113 -3 0 -22 -30 -41 -67 -19 -38 -88 -171 -153 -298 -65 -126
-119 -232 -121 -234 -2 -2 -4 356 -4 796 l0 801 58 -2 57 -1 0 -553z"/>
</g>
</svg>
